<?xml version="1.0" encoding="utf-8"?>
<!-- Generator: Adobe Illustrator 24.0.1, SVG Export Plug-In . SVG Version: 6.00 Build 0)  -->
<svg width="160px" height="48px" viewBox="0 0 160 48" version="1.1" xmlns="http://www.w3.org/2000/svg" xmlns:xlink="http://www.w3.org/1999/xlink">
<style type="text/css">
	.st0{fill:#A6A6A6;}
	.st1{fill:#FFFFFF;}
	.st2{fill:url(#SVGID_1_);}
	.st3{fill:url(#SVGID_2_);}
	.st4{fill:url(#SVGID_3_);}
	.st5{fill:url(#SVGID_4_);}
	.st6{opacity:0.2;enable-background:new    ;}
	.st7{opacity:0.12;enable-background:new    ;}
	.st8{opacity:0.25;fill:#FFFFFF;enable-background:new    ;}
	.st9{fill:#FFFFFF;stroke:#FFFFFF;stroke-width:0.2;stroke-miterlimit:10;}
</style>
<path d="M154.1,48H5.9C2.7,48,0,45.3,0,42V6c0-3.3,2.7-6,5.9-6h148.1c3.3,0,5.9,2.7,5.9,6v36C160,45.3,157.3,48,154.1,48z"/>
<path class="st0" d="M154.1,1c2.7,0,5,2.3,5,5v36c0,2.8-2.2,5-5,5H5.9c-2.7,0-5-2.3-5-5V6c0-2.8,2.2-5,5-5H154.1L154.1,1z M154.1,0
	H5.9C2.7,0,0,2.7,0,6v36c0,3.3,2.7,6,5.9,6h148.1c3.3,0,5.9-2.7,5.9-6V6C160,2.7,157.3,0,154.1,0z"/>
<path class="st1" d="M80.8,26.1c-2.8,0-5.1,2.1-5.1,5.1c0,2.9,2.3,5.1,5.1,5.1c2.8,0,5.1-2.2,5.1-5.1C85.8,28.2,83.5,26.1,80.8,26.1
	z M80.8,34.3c-1.5,0-2.8-1.3-2.8-3.1c0-1.8,1.3-3.1,2.8-3.1c1.5,0,2.8,1.3,2.8,3.1C83.6,33,82.3,34.3,80.8,34.3z M69.7,26.1
	c-2.8,0-5.1,2.1-5.1,5.1c0,2.9,2.3,5.1,5.1,5.1c2.8,0,5.1-2.2,5.1-5.1C74.8,28.2,72.5,26.1,69.7,26.1z M69.7,34.3
	c-1.5,0-2.8-1.3-2.8-3.1c0-1.8,1.3-3.1,2.8-3.1c1.5,0,2.8,1.3,2.8,3.1C72.6,33,71.2,34.3,69.7,34.3z M56.6,27.7v2.2h5.1
	c-0.2,1.2-0.6,2.1-1.2,2.7c-0.7,0.8-1.9,1.6-3.9,1.6c-3.2,0-5.6-2.6-5.6-5.8c0-3.2,2.5-5.8,5.6-5.8c1.7,0,2.9,0.7,3.9,1.5l1.5-1.5
	c-1.3-1.2-3-2.2-5.4-2.2c-4.3,0-7.9,3.6-7.9,7.9c0,4.4,3.6,7.9,7.9,7.9c2.3,0,4.1-0.8,5.5-2.2c1.4-1.4,1.8-3.4,1.8-5.1
	c0-0.5,0-1-0.1-1.4L56.6,27.7L56.6,27.7z M110.3,29.4c-0.4-1.1-1.7-3.3-4.3-3.3c-2.6,0-4.8,2.1-4.8,5.1c0,2.9,2.1,5.1,5,5.1
	c2.3,0,3.7-1.4,4.2-2.3l-1.7-1.2c-0.6,0.9-1.4,1.4-2.5,1.4c-1.1,0-1.9-0.5-2.4-1.5l6.7-2.8L110.3,29.4z M103.4,31.1
	c-0.1-2,1.5-3,2.6-3c0.9,0,1.6,0.4,1.9,1.1L103.4,31.1z M97.9,36h2.2V21h-2.2V36z M94.3,27.2L94.3,27.2c-0.6-0.6-1.5-1.1-2.7-1.1
	c-2.5,0-4.8,2.2-4.8,5.1c0,2.9,2.3,5.1,4.8,5.1c1.2,0,2.2-0.5,2.7-1.2h0.1v0.7c0,2-1,3-2.7,3c-1.4,0-2.2-1-2.5-1.8l-1.9,0.8
	c0.6,1.4,2,3,4.5,3c2.6,0,4.8-1.5,4.8-5.3v-9.2h-2.1L94.3,27.2L94.3,27.2z M91.8,34.3c-1.5,0-2.8-1.3-2.8-3.1c0-1.8,1.3-3.1,2.8-3.1
	c1.5,0,2.7,1.3,2.7,3.1C94.5,33,93.3,34.3,91.8,34.3z M120.7,21h-5.3v15h2.2v-5.7h3.1c2.5,0,4.9-1.8,4.9-4.7S123.1,21,120.7,21z
	 M120.7,28.2h-3.1v-5.1h3.1c1.7,0,2.6,1.4,2.6,2.6C123.3,26.8,122.4,28.2,120.7,28.2z M134.4,26.1c-1.6,0-3.3,0.7-3.9,2.3l2,0.8
	c0.4-0.8,1.2-1.1,2-1.1c1.2,0,2.3,0.7,2.3,1.9v0.2c-0.4-0.2-1.3-0.6-2.3-0.6c-2.1,0-4.3,1.2-4.3,3.4c0,2,1.7,3.3,3.7,3.3
	c1.5,0,2.3-0.7,2.8-1.5h0.1V36h2.1v-5.7C138.9,27.6,136.9,26.1,134.4,26.1z M134.1,34.3c-0.7,0-1.7-0.4-1.7-1.3
	c0-1.2,1.3-1.6,2.3-1.6c1,0,1.4,0.2,2,0.5C136.6,33.3,135.4,34.3,134.1,34.3z M146.7,26.4l-2.5,6.5H144l-2.6-6.5H139l3.9,9.1
	l-2.3,5.1h2.3l6.1-14.1H146.7z M126.7,36h2.2V21h-2.2V36z"/>
<linearGradient id="SVGID_1_" gradientUnits="userSpaceOnUse" x1="25.9967" y1="39.4343" x2="5.8665" y2="19.46" gradientTransform="matrix(1 0 0 -1 0 50)">
	<stop  offset="0" style="stop-color:#00A0FF"/>
	<stop  offset="6.574450e-03" style="stop-color:#00A1FF"/>
	<stop  offset="0.2601" style="stop-color:#00BEFF"/>
	<stop  offset="0.5122" style="stop-color:#00D2FF"/>
	<stop  offset="0.7604" style="stop-color:#00DFFF"/>
	<stop  offset="1" style="stop-color:#00E3FF"/>
</linearGradient>
<path class="st2" d="M12.4,9c-0.3,0.4-0.5,0.9-0.5,1.7v26.5c0,0.7,0.2,1.3,0.5,1.7l0.1,0.1l14.7-14.9V24v-0.2L12.4,9L12.4,9z"/>
<linearGradient id="SVGID_2_" gradientUnits="userSpaceOnUse" x1="40.0989" y1="26.0006" x2="11.4211" y2="26.0006" gradientTransform="matrix(1 0 0 -1 0 50)">
	<stop  offset="0" style="stop-color:#FFE000"/>
	<stop  offset="0.4087" style="stop-color:#FFBD00"/>
	<stop  offset="0.7754" style="stop-color:#FFA500"/>
	<stop  offset="1" style="stop-color:#FF9C00"/>
</linearGradient>
<path class="st3" d="M32,29.1l-4.9-5V24v-0.2l4.9-5l0.1,0.1l5.8,3.3c1.7,0.9,1.7,2.5,0,3.5l-5.8,3.3L32,29.1z"/>
<linearGradient id="SVGID_3_" gradientUnits="userSpaceOnUse" x1="29.425" y1="23.2546" x2="2.179" y2="-3.7803" gradientTransform="matrix(1 0 0 -1 0 50)">
	<stop  offset="0" style="stop-color:#FF3A44"/>
	<stop  offset="1" style="stop-color:#C31162"/>
</linearGradient>
<path class="st4" d="M32.1,29.1l-5-5.1L12.4,39c0.5,0.6,1.4,0.7,2.5,0.1L32.1,29.1z"/>
<linearGradient id="SVGID_4_" gradientUnits="userSpaceOnUse" x1="8.4406" y1="49.5679" x2="20.6072" y2="37.4958" gradientTransform="matrix(1 0 0 -1 0 50)">
	<stop  offset="0" style="stop-color:#32A071"/>
	<stop  offset="6.850000e-02" style="stop-color:#2DA771"/>
	<stop  offset="0.4762" style="stop-color:#15CF74"/>
	<stop  offset="0.8009" style="stop-color:#06E775"/>
	<stop  offset="1" style="stop-color:#00F076"/>
</linearGradient>
<path class="st5" d="M32.1,18.9L14.8,9c-1-0.6-1.9-0.5-2.5,0.1l14.8,15L32.1,18.9z"/>
<path class="st6" d="M32,29l-17.2,9.9c-1,0.6-1.8,0.5-2.4,0L12.4,39l0.1,0.1c0.6,0.5,1.4,0.5,2.4,0l17.3-10L32,29z"/>
<path class="st7" d="M12.4,38.8c-0.3-0.4-0.5-0.9-0.5-1.7v0.2c0,0.7,0.2,1.3,0.5,1.7V38.8L12.4,38.8z"/>
<path class="st7" d="M37.9,25.6L32,29l0.1,0.1l5.8-3.3c0.8-0.5,1.2-1.1,1.2-1.7C39.1,24.6,38.7,25.1,37.9,25.6z"/>
<path class="st8" d="M14.8,9.1l23.1,13.3c0.7,0.4,1.2,1,1.2,1.6c0-0.6-0.4-1.3-1.2-1.7L14.8,9c-1.7-0.9-3-0.2-3,1.8v0.2
	C11.8,9,13.2,8.2,14.8,9.1z"/>
<path class="st9" d="M48.9,15.6V8.4h2.2c1.1,0,2,0.3,2.6,1c0.7,0.7,1,1.5,1,2.6s-0.3,1.9-1,2.6c-0.7,0.7-1.5,1-2.6,1H48.9z
	 M49.8,14.7h1.3c0.8,0,1.5-0.2,2-0.7c0.5-0.5,0.7-1.1,0.7-2c0-0.9-0.2-1.5-0.7-2c-0.5-0.5-1.1-0.7-2-0.7h-1.3V14.7z"/>
<path class="st9" d="M56,15.6V8.4h0.9v7.2H56z"/>
<path class="st9" d="M60.5,15.8c-0.5,0-1-0.2-1.5-0.5c-0.5-0.3-0.8-0.8-1-1.4l0.8-0.3c0.1,0.4,0.3,0.7,0.6,1c0.3,0.3,0.7,0.4,1,0.4
	c0.4,0,0.7-0.1,1-0.3c0.3-0.2,0.4-0.5,0.4-0.9c0-0.4-0.1-0.7-0.4-0.9s-0.7-0.4-1.3-0.6c-0.6-0.2-1.1-0.5-1.4-0.8
	c-0.3-0.3-0.5-0.7-0.5-1.2c0-0.5,0.2-1,0.6-1.3c0.4-0.4,0.9-0.6,1.6-0.6c0.6,0,1.1,0.2,1.5,0.5c0.4,0.3,0.6,0.6,0.7,1L61.8,10
	c-0.1-0.2-0.2-0.4-0.4-0.6c-0.2-0.2-0.5-0.3-0.9-0.3c-0.4,0-0.7,0.1-0.9,0.3c-0.2,0.2-0.4,0.4-0.4,0.7c0,0.3,0.1,0.5,0.3,0.7
	c0.2,0.2,0.6,0.3,1,0.5c0.4,0.1,0.6,0.2,0.9,0.3s0.5,0.3,0.7,0.4c0.2,0.2,0.4,0.4,0.5,0.7c0.1,0.3,0.2,0.6,0.2,0.9
	c0,0.3-0.1,0.7-0.2,0.9c-0.1,0.3-0.3,0.5-0.6,0.6c-0.2,0.2-0.5,0.3-0.8,0.4C61.1,15.7,60.8,15.8,60.5,15.8z"/>
<path class="st9" d="M65.1,15.6h-0.9V8.4h2.4c0.6,0,1.1,0.2,1.6,0.6c0.4,0.4,0.7,0.9,0.7,1.5c0,0.6-0.2,1.1-0.7,1.5
	c-0.4,0.4-1,0.6-1.6,0.6h-1.5L65.1,15.6L65.1,15.6z M65.1,11.8h1.5c0.4,0,0.7-0.1,0.9-0.4c0.2-0.3,0.3-0.6,0.3-0.9s-0.1-0.6-0.3-0.9
	c-0.2-0.3-0.5-0.4-0.9-0.4h-1.5V11.8z"/>
<path class="st9" d="M75.8,14.7c-0.7,0.7-1.6,1.1-2.6,1.1c-1,0-1.9-0.4-2.6-1.1c-0.7-0.7-1.1-1.6-1.1-2.7s0.4-1.9,1.1-2.7
	c0.7-0.7,1.6-1.1,2.6-1.1c1,0,1.9,0.4,2.6,1.1c0.7,0.7,1.1,1.6,1.1,2.7C76.9,13.1,76.5,13.9,75.8,14.7z M71.3,14.1
	c0.5,0.5,1.2,0.8,1.9,0.8c0.8,0,1.4-0.3,1.9-0.8c0.5-0.5,0.8-1.2,0.8-2.1c0-0.8-0.3-1.5-0.8-2.1c-0.5-0.5-1.2-0.8-1.9-0.8
	c-0.8,0-1.4,0.3-1.9,0.8c-0.5,0.5-0.8,1.2-0.8,2.1C70.5,12.8,70.8,13.5,71.3,14.1z"/>
<path class="st9" d="M78.2,15.6V8.4h1.1l3.5,5.6h0l0-1.4V8.4h0.9v7.2h-0.9l-3.6-5.9h0l0,1.4v4.5H78.2z"/>
<path class="st9" d="M85.3,15.6V8.4h0.9v7.2H85.3z"/>
<path class="st9" d="M87.8,15.6V8.4h2.6c0.6,0,1,0.2,1.4,0.6c0.4,0.4,0.6,0.8,0.6,1.4c0,0.3-0.1,0.6-0.3,0.9
	c-0.2,0.3-0.4,0.5-0.7,0.6v0c0.4,0.1,0.6,0.3,0.9,0.6c0.2,0.3,0.3,0.6,0.3,1c0,0.6-0.2,1.1-0.6,1.5c-0.4,0.4-0.9,0.6-1.5,0.6H87.8z
	 M88.7,11.5h1.7c0.3,0,0.6-0.1,0.8-0.3c0.2-0.2,0.3-0.5,0.3-0.8c0-0.3-0.1-0.5-0.3-0.8c-0.2-0.2-0.5-0.3-0.8-0.3h-1.7V11.5z
	 M88.7,14.7h1.8c0.4,0,0.6-0.1,0.9-0.4c0.2-0.3,0.3-0.5,0.3-0.8s-0.1-0.6-0.3-0.8c-0.2-0.2-0.5-0.4-0.9-0.4h-1.8L88.7,14.7
	L88.7,14.7z"/>
<path class="st9" d="M93.9,15.6V8.4h0.9v6.3h3.1v0.9H93.9z"/>
<path class="st9" d="M103.2,9.3H100v2.3h2.9v0.9H100v2.3h3.2v0.9h-4.1V8.4h4.1V9.3z"/>
<path class="st9" d="M111.2,9.3h-3.2v2.3h2.9v0.9h-2.9v2.3h3.2v0.9H107V8.4h4.1V9.3z"/>
<path class="st9" d="M112.6,15.6V8.4h1.1l3.5,5.6h0l0-1.4V8.4h0.9v7.2h-0.9l-3.6-5.9h0l0,1.4v4.5H112.6z"/>
</svg>
